<?xml version="1.0" encoding="UTF-8"?><svg id="Layer_2" xmlns="http://www.w3.org/2000/svg" viewBox="0 0 505.27 735.55"><defs><style>.cls-1{fill:#38676f;}</style></defs><g id="Layer_1-2"><g><path class="cls-1" d="M370.32,432.64c-1.9,4.85-4.31,9.49-7.05,13.91-1.36,2.23-2.8,4.4-4.34,6.51-1.39,1.93-2.74,3.91-4.16,5.81-.87,1.17-1.78,2.32-2.74,3.43-2.44,2.83-5.33,5.24-8.16,7.65-4.52,3.82-9.4,7.23-14.7,9.82-.51,.24-.99,.45-1.48,.66-6.81,3.07-14.21,4.79-21.68,4.79-4.49,0-9.03-.6-13.46-1.81-27.28-7.37-49.92-36.84-57.03-73.85-.16-.82,.4-1.62,1.22-1.75l3.02-.51c.79-.13,1.52,.39,1.68,1.18,6.69,34.75,27.6,62.34,52.68,69.12,4,1.08,8.04,1.63,12.05,1.63,14.58,0,28.94-7.35,41.8-21.32l.03-.3c7.68-8.07,9.82-22.59-3.49-35.9-9.61-9.58-28.73-17.86-52.46-22.74l-67.11-14.51c-.52,.17-.92,.31-1.44,.48l-65.53,76.18c-.53,.62-1.47,.69-2.09,.15l-2.32-2.01c-.61-.53-.68-1.46-.15-2.08l63.94-74.35c-1.02-.21-2.05-.42-3.04-.63-29.36-6.2-50.56-10.69-67.61-27.74-24.45-24.42-25.12-57.94-2.77-85.92,12.02-15.12,26.83-23.4,41.8-23.4,4,0,8.01,.57,11.96,1.72,24.41,7.22,42.22,34.42,45.95,69.76,.09,.83-.54,1.58-1.37,1.64l-3.05,.25c-.79,.06-1.48-.52-1.57-1.31-3.47-32.4-19.99-58.14-41.69-64.55-3.43-1.02-6.93-1.54-10.39-1.54-10.57,0-20.3,4.88-28.1,11.74-1.63,1.45-3.19,2.98-4.67,4.58-1.02,1.09-2.17,1.99-3.01,3.22-1.57,2.17-2.83,4.61-3.85,7.08-.84,2.02-1.32,4.19-1.47,6.36-.27,4.43,.87,8.85,2.92,12.74,1.78,3.31,4.13,6.26,6.78,8.91,10.33,10.33,27.4,18.04,52.16,23.58l47.08,10.41c.53,.12,1.08-.07,1.44-.48l68.12-79.19c.53-.62,1.46-.69,2.08-.16l2.31,1.99c.62,.53,.69,1.46,.16,2.08l-66.56,77.39,4.16,.93c5.6,1.2,11.44,2.32,17.35,3.43,29.36,5.6,59.75,11.38,77.97,30.05,7.02,7.2,12.02,16.2,13.73,26.17,1.75,10.36-.06,20.99-3.85,30.69Z"/><path class="cls-1" d="M251.3,651.34c-126.41,0-229.25-128.37-229.25-286.15S124.89,79.03,251.3,79.03s229.25,128.37,229.25,286.15-102.84,286.15-229.25,286.15Zm0-568.91c-124.53,0-225.85,126.84-225.85,282.75s101.32,282.75,225.85,282.75,225.85-126.84,225.85-282.75S375.83,82.43,251.3,82.43Z"/><g><path class="cls-1" d="M32.36,138.48l-19.07-15.24-6.56,8.21-2.1-1.68,15.28-19.11,2.1,1.68-6.54,8.18,19.07,15.24-2.19,2.73Z"/><path class="cls-1" d="M56.93,110.46l-18.39-19.9,2.57-2.38,8.14,8.81,13.17-12.17-8.14-8.81,2.54-2.35,18.39,19.9-2.54,2.35-8.4-9.09-13.17,12.17,8.4,9.09-2.57,2.38Z"/><path class="cls-1" d="M96.25,77.36l-14.99-22.58,15.82-10.5,1.44,2.18-12.97,8.61,5.21,7.85,12.2-8.1,1.47,2.21-12.2,8.1,5.4,8.14,12.97-8.61,1.47,2.21-15.82,10.51Z"/><path class="cls-1" d="M171.1,40.16c-2.28,.74-4.4,1.13-6.37,1.18-1.96,.04-3.78-.21-5.44-.78l.42-2.8c1.14,.33,2.26,.55,3.35,.67s2.21,.1,3.38-.04c1.17-.15,2.43-.45,3.8-.89,2.38-.77,4.02-1.75,4.91-2.92,.89-1.18,1.12-2.44,.69-3.78-.37-1.15-1.06-1.89-2.06-2.24-1-.35-2.56-.38-4.69-.09l-4.46,.6c-2.75,.35-4.94,.19-6.57-.5-1.63-.69-2.75-1.96-3.35-3.84-.5-1.54-.5-3.01,0-4.44,.5-1.43,1.43-2.72,2.8-3.86,1.38-1.15,3.11-2.06,5.19-2.73,2.01-.65,3.93-.97,5.76-.96,1.84,0,3.52,.35,5.03,1.01l-.41,2.72c-1.59-.61-3.15-.92-4.67-.93-1.52,0-3.15,.28-4.9,.84-2.19,.71-3.79,1.71-4.77,2.99-.99,1.28-1.25,2.66-.77,4.15,.39,1.19,1.09,2,2.11,2.41,1.02,.41,2.51,.49,4.46,.23l4.5-.61c2.9-.37,5.15-.26,6.77,.35,1.62,.61,2.73,1.84,3.33,3.69,.46,1.41,.45,2.8-.04,4.18-.49,1.37-1.41,2.61-2.76,3.72-1.35,1.11-3.1,2.02-5.24,2.71Z"/><path class="cls-1" d="M205.02,31l-3.52-26.87,3.47-.46,1.56,11.89,17.78-2.33-1.56-11.89,3.43-.45,3.52,26.87-3.43,.45-1.61-12.27-17.78,2.33,1.61,12.27-3.47,.46Z"/><path class="cls-1" d="M255.85,27.06l1.37-27.06,18.97,.96-.13,2.61-15.55-.79-.47,9.4,14.62,.74-.13,2.65-14.62-.74-.5,9.75,15.55,.78-.13,2.65-18.97-.96Z"/><path class="cls-1" d="M299.22,31.41l6-26.43,11.81,2.68c3.04,.69,5.24,1.89,6.58,3.6,1.34,1.71,1.74,3.76,1.2,6.13-.53,2.33-1.77,3.98-3.72,4.97-1.96,.99-4.45,1.14-7.5,.44l-8.4-1.9-2.56,11.28-3.42-.77Zm6.56-13.09l8.07,1.83c2.11,.48,3.81,.4,5.09-.23s2.1-1.73,2.46-3.3c.36-1.6,.1-2.96-.78-4.08-.88-1.12-2.38-1.92-4.5-2.4l-8.06-1.83-2.27,10.01Z"/><path class="cls-1" d="M343.55,43.71l10.7-24.9,3.22,1.38-4.74,11.02,16.48,7.08,4.74-11.02,3.18,1.37-10.7,24.9-3.18-1.37,4.89-11.37-16.47-7.08-4.89,11.37-3.22-1.38Z"/><path class="cls-1" d="M389.51,66.29l14.77-22.72,15.92,10.35-1.42,2.19-13.05-8.49-5.14,7.9,12.28,7.98-1.45,2.23-12.28-7.98-5.32,8.18,13.06,8.49-1.45,2.22-15.92-10.35Z"/><path class="cls-1" d="M425.14,91.74l18.1-20.17,9.04,8.12c2.33,2.09,3.68,4.2,4.06,6.35,.38,2.15-.24,4.12-1.85,5.91-1.06,1.18-2.25,1.93-3.57,2.24-1.32,.31-2.7,.22-4.13-.27-1.43-.49-2.84-1.36-4.22-2.6l.9,.13,.63,.57c.86,.77,1.46,1.65,1.8,2.65,.34,.99,.3,2.11-.11,3.37l-2.94,9.6-2.86-2.57,2.97-9.37c.41-1.18,.38-2.21-.1-3.11s-1.26-1.82-2.32-2.78l-4.96-4.45-7.83,8.73-2.61-2.34Zm12.11-8.25l6.06,5.44c1.67,1.5,3.24,2.31,4.7,2.44,1.46,.12,2.75-.44,3.86-1.68,1.11-1.24,1.52-2.57,1.24-4-.29-1.43-1.27-2.9-2.95-4.4l-6.06-5.44-6.85,7.64Z"/><path class="cls-1" d="M459.53,125.31l21.01-17.12,6.24,7.66c2.08,2.55,3.44,5.03,4.07,7.46,.63,2.42,.54,4.73-.27,6.91-.81,2.19-2.35,4.2-4.62,6.05-2.24,1.83-4.53,2.93-6.84,3.29-2.32,.36-4.6,0-6.86-1.11-2.25-1.1-4.42-2.93-6.5-5.48l-6.24-7.65Zm4.33,.99l3.87,4.74c2.56,3.14,5.16,4.9,7.8,5.29,2.65,.38,5.37-.56,8.17-2.84,2.82-2.3,4.3-4.78,4.45-7.44,.15-2.66-1.06-5.56-3.62-8.7l-3.87-4.75-16.8,13.7Z"/></g><g><path class="cls-1" d="M0,599.85l15.27-24.67,2.23,2.92-13.92,21.99-.89-1.17,25.19-7.19,1.69,2.22-13.95,21.96-.82-1.07,25.06-7.36,2.1,2.76-27.9,8.08-1.89-2.49,13.36-21.2,.54,.7-24.22,6.93-1.84-2.42Z"/><path class="cls-1" d="M40.39,647.1l18.45-19.83,13.9,12.93-1.78,1.92-11.4-10.61-6.41,6.89,10.72,9.98-1.8,1.94-10.72-9.98-6.65,7.14,11.4,10.61-1.8,1.94-13.9-12.94Z"/><path class="cls-1" d="M77.04,678.31l15.1-22.49,8.2,5.51c2.73,1.84,4.76,3.82,6.07,5.95,1.31,2.13,1.9,4.36,1.76,6.69-.14,2.33-1.03,4.71-2.65,7.13-1.61,2.4-3.48,4.11-5.58,5.14-2.11,1.02-4.41,1.33-6.88,.93-2.48-.4-5.08-1.52-7.81-3.35l-8.2-5.51Zm4.43-.31l5.08,3.41c3.36,2.26,6.37,3.19,9.01,2.79,2.64-.4,4.97-2.1,6.99-5.1,2.03-3.02,2.73-5.83,2.09-8.41-.63-2.59-2.63-5.01-5.99-7.27l-5.08-3.42-12.09,17.99Z"/><path class="cls-1" d="M124.15,706.68l10.85-24.82,9.05,3.95c3.01,1.32,5.36,2.91,7.03,4.77s2.65,3.95,2.92,6.27c.28,2.32-.17,4.81-1.34,7.49-1.16,2.65-2.69,4.67-4.58,6.05s-4.09,2.1-6.6,2.15c-2.51,.05-5.27-.58-8.29-1.9l-9.05-3.96Zm4.3-1.1l5.6,2.46c3.71,1.62,6.83,2,9.36,1.13,2.53-.86,4.52-2.95,5.96-6.26,1.46-3.34,1.64-6.22,.55-8.65-1.08-2.43-3.48-4.46-7.19-6.08l-5.61-2.45-8.68,19.85Z"/><path class="cls-1" d="M175.33,725.71l6.99-26.18,3.38,.91-6.99,26.17-3.38-.9Z"/><path class="cls-1" d="M208.75,733l2.87-26.94,2.73,.29,16.53,24.94-.97-.1,2.44-22.92,3.23,.35-2.87,26.94-2.69-.29-16.53-24.95,.92,.1-2.44,22.92-3.23-.35Z"/><path class="cls-1" d="M277.44,735.07c-3.25,.27-6.02-.04-8.29-.96-2.28-.92-4.05-2.36-5.32-4.34-1.27-1.98-2.02-4.41-2.26-7.29-.24-2.86,.13-5.37,1.1-7.53,.98-2.16,2.5-3.9,4.56-5.2,2.07-1.3,4.63-2.08,7.68-2.34,2.16-.18,4.05-.05,5.68,.39s3.13,1.17,4.48,2.19l-1.09,2.6c-.99-.66-1.93-1.18-2.82-1.54-.89-.36-1.81-.61-2.75-.75-.95-.14-2.03-.15-3.27-.05-3.5,.3-6.1,1.48-7.81,3.57-1.7,2.08-2.41,4.89-2.11,8.41,.3,3.55,1.43,6.19,3.39,7.93,1.97,1.74,4.86,2.45,8.67,2.13,1.4-.12,2.73-.35,3.99-.7s2.47-.81,3.63-1.37l-.61,1.79-.8-9.5-7.57,.64-.21-2.49,10.55-.88,1.05,12.52c-1.15,.69-2.64,1.29-4.44,1.8-1.81,.51-3.62,.84-5.45,1Z"/><path class="cls-1" d="M349.73,718.68l-9.93-25.2,17.28-6.81,.96,2.43-14.01,5.52,3.48,8.83,13.15-5.18,.96,2.43-13.16,5.18,4.54,11.51-3.26,1.28Z"/><path class="cls-1" d="M392.12,699.33l-13.2-23.65,3.06-1.71,13.2,23.65-3.06,1.71Z"/><path class="cls-1" d="M420.87,681.5l-16.08-21.79,2.82-2.08,14.44,19.57,12.09-8.92,1.65,2.23-14.91,11Z"/><path class="cls-1" d="M456.89,652.47l-19.34-18.96,2.13-2.17,25.89,8.66-.86,.88-9.17-25.72,2.13-2.17,19.34,18.96-2.25,2.29-16.4-16.09,.88-.9,8.52,24.13-1.62,1.66-24.33-8.01,.89-.91,16.4,16.09-2.22,2.26Z"/><path class="cls-1" d="M502.33,600.49c-1.39,1.95-2.86,3.52-4.42,4.72-1.55,1.21-3.17,2.07-4.84,2.61l-1.33-2.5c1.11-.42,2.15-.9,3.09-1.45,.95-.55,1.84-1.23,2.69-2.04,.85-.81,1.69-1.8,2.53-2.97,1.46-2.03,2.19-3.79,2.21-5.27,.02-1.47-.55-2.62-1.69-3.44-.98-.7-1.97-.89-2.99-.58s-2.29,1.22-3.83,2.71l-3.23,3.14c-2,1.92-3.86,3.09-5.58,3.51-1.71,.42-3.37,.05-4.98-1.1-1.31-.94-2.19-2.13-2.64-3.57-.45-1.44-.46-3.03-.04-4.77,.42-1.73,1.27-3.5,2.55-5.28,1.23-1.72,2.58-3.11,4.07-4.2s3.03-1.81,4.65-2.18l1.29,2.42c-1.65,.45-3.08,1.13-4.31,2.03s-2.38,2.1-3.44,3.58c-1.34,1.88-2.03,3.63-2.07,5.24-.04,1.61,.58,2.88,1.85,3.79,1.02,.73,2.07,.96,3.13,.68,1.07-.28,2.31-1.1,3.73-2.47l3.26-3.17c2.11-2.02,3.99-3.27,5.65-3.74,1.66-.47,3.28-.14,4.87,.99,1.21,.86,2.02,1.99,2.45,3.38,.42,1.39,.42,2.94,0,4.64-.43,1.7-1.3,3.46-2.61,5.3Z"/></g><path class="cls-1" d="M251.3,624.48c-114.56,0-207.76-116.32-207.76-259.29S136.74,105.89,251.3,105.89s207.76,116.32,207.76,259.29-93.2,259.29-207.76,259.29Zm0-515.19c-112.69,0-204.36,114.8-204.36,255.89s91.68,255.89,204.36,255.89,204.36-114.8,204.36-255.89S363.99,109.29,251.3,109.29Z"/></g></g></svg>