<?xml version="1.0" encoding="UTF-8"?><svg id="Layer_2" xmlns="http://www.w3.org/2000/svg" viewBox="0 0 1861.86 285"><defs><style>.cls-1{fill:#ffffff;}</style></defs><g id="Layer_1-2"><g><g><g><g><path class="cls-1" d="M352.06,273.12l-5.14-96.19h.79c18.21,52.25,42.75,98.95,67.29,98.95,9.9,0,21.77-7.52,21.77-26.12,0-11.48-5.94-29.68-20.58-51.85l-37.21-57.79c-19.39-30.09-33.64-49.09-33.64-76C345.33,24.54,375.02,0,415.39,0c17.81,0,32.86,5.15,48.29,13.07l5.54,93.41h-.79c-24.15-49.48-41.56-96.58-61.75-96.58-9.1,0-19,7.91-19,25.33,0,14.25,6.73,31.66,19.79,52.24l32.06,50.27c18.21,28.11,43.94,59.38,43.54,91.04-.39,35.63-32.06,56.21-78.38,56.21-14.25,0-36.81-1.99-52.64-11.88Z"/><path class="cls-1" d="M519.91,208.21V76.79c0-58.97-5.54-63.72-18.21-72.83h83.52c-12.67,9.11-18.21,13.86-18.21,72.83v47.1c0,11.88,4.35,11.88,12.27,11.88h34.83c7.92,0,12.27,0,12.27-11.88v-47.1c0-58.97-5.54-63.72-18.21-72.83h83.52c-12.67,9.11-18.21,13.86-18.21,72.83V208.21c0,58.97,5.54,63.72,18.21,72.83h-83.52c12.67-9.11,18.21-13.86,18.21-72.83v-49.48c0-11.87-4.35-11.87-12.27-11.87h-34.83c-7.91,0-12.27,0-12.27,11.87v49.48c0,58.97,5.54,63.72,18.21,72.83h-83.52c12.67-9.11,18.21-13.86,18.21-72.83Z"/><path class="cls-1" d="M990.56,3.95h-93.4c12.4,8.89,17.92,13.62,18.2,68.83V208.19c0,59.01-5.52,63.73-18.2,72.86h83.52c-12.68-9.13-18.2-13.85-18.2-72.86V76.8c0-51.84,5.9-62.56,19.37-62.56,24.14,0,43.97,35.23,43.97,75.24,0,17.08-4.24,30.65-7.28,41.32,2.48-.28-2.67-.51,0-.75,8.7-17.69,12.35-37.06,12.45-37.39l9.17,1.68c-.19,1.22-3.32,17.88-10.95,35,8.33-.47,17.27-.66,26.53-.66,5.33-11.37,8.05-25.22,8.05-41.6,0-65.32-41.97-83.15-73.23-83.15Z"/><path class="cls-1" d="M1195.56,135.76c-12.88-1.39-32.77-2.78-42.17-3.4-2.98-.2-5.28-2.67-5.28-5.66v-49.9c0-59,5.57-63.73,18.25-72.85h-83.52c12.63,9.13,18.2,13.85,18.2,72.85V208.19c0,59.01-5.57,63.73-18.2,72.86h83.52c-12.68-9.13-18.25-13.85-18.25-72.86v-62c0-2.63,2.24-4.71,4.86-4.53,17.8,1.24,34.74,2.65,49.54,4.06,2.83,.27,4.97,2.65,4.97,5.5v56.98c0,59.01-5.52,63.73-18.2,72.86h83.52c-12.68-9.13-18.2-13.85-18.2-72.86V76.8c0-59,5.52-63.73,18.2-72.85h-83.52c12.68,9.13,18.2,13.85,18.2,72.85v54.65c0,2.91-2.5,5.18-5.4,4.91-2.01-.19-4.19-.39-6.53-.6h-.05"/><path class="cls-1" d="M1551.51,147.25v-1.19c38.79,0,40.37-7.92,40.37-34.83,0-53.44-8.31-96.98-31.67-96.98-11.48,0-16.62,10.69-16.62,62.54V208.21c0,58.97,5.54,63.72,18.21,72.83h-83.52c12.67-9.11,18.21-13.86,18.21-72.83V76.79c0-58.97-5.54-63.72-18.21-72.83h95.39c37.21,0,66.5,28.5,66.5,71.25,0,33.25-17.42,53.83-38,64.12,35.62,90.65,53.04,136.16,69.67,141.32-6.73,1.97-17.81,2.37-21.38,2.37-70.85,0-75.6-135.76-98.96-135.76Z"/><path class="cls-1" d="M1698.38,208.21V76.79c0-58.97-5.54-63.72-18.21-72.83h83.52c52.25,0,98.16,41.96,98.16,136.17s-43.93,140.92-100.14,140.92h-81.54c12.67-9.11,18.21-13.86,18.21-72.83Zm75.6,62.14c31.67,0,39.58-39.19,39.58-97.77,0-89.07-17.42-157.94-49.87-157.94-14.25,0-18.21,10.69-18.21,50.27V216.91c0,43.54,13.85,53.44,28.5,53.44Z"/></g><path class="cls-1" d="M1745.49,190.83c.99,44.36-.11,73.97,19,90.21h-55.02l36.02-90.21Z"/></g><path class="cls-1" d="M1055.74,128.69c-1.54,3.32-3.28,6.41-5.29,9.26,15.72-.19,32.99,.14,50.58,.84v-9.31c-15.3-.56-30.7-.94-45.29-.8Zm-70.89,39.96c.19,.05,.42,.05,.61,.05,1.31,0,2.67-.09,4.02-.37-1.5,.14-3.04,.28-4.63,.33Z"/><path class="cls-1" d="M1029.21,129.35c7.63-17.13,10.76-33.78,10.95-35l-9.17-1.68c-.09,.33-3.74,19.7-12.45,37.39-2.67,.23-5.29,.47-7.77,.75-13.99,1.54-25.08,3.98-31.68,7.63-6.5,3.6-10.34,9.36-10.34,15.49,.05,4.77,2.39,9.08,6.41,11.74,.42,.33,.84,.61,1.31,.84,2.48,1.35,5.33,2.1,8.38,2.15,1.59-.05,3.14-.19,4.63-.33,.14,0,.28,0,.37-.05,28.17-2.67,48.48-12.68,60.6-30.32,2.01-2.86,3.74-5.94,5.29-9.26-9.26,0-18.2,.19-26.53,.66Zm-48.29,28.96c-1.78-.98-2.81-2.57-2.81-4.45,0-2.62,2.06-5.33,5.52-7.25,4.96-2.76,13.2-4.77,23.77-6.13,1.82-.24,3.7-.47,5.62-.66-3.88,5.94-8.52,11.18-13.9,14.65-.61,.37-1.17,.75-1.78,1.08-.05,0-.05,.05-.09,.05-6.55,3.74-12.54,4.77-16.33,2.71Z"/><path class="cls-1" d="M878.17,183.26l-11.89,97.79h-152.03c12.68-9.12,18.25-13.9,18.25-72.85V76.76c0-58.96-5.57-63.68-18.25-72.81h150.44l6.74,100.14h-1.22c-24.94-70.05-44.73-89.84-65.7-89.84s-24.94,19.79-24.94,62.14v70.37c19.14-26.16,25.59-36.73,31.12-37.25,5.76-.51,22.18,19.09,31.3,20.4,9.12,1.26,10.2-4.21,11.51-3.7,1.31,.56-14.37,31.87-27.42,31.87s-24.52-17.22-30.79-17.22c-5.94,0-14.22,12.82-15.72,15.21v52.5c0,42.39,3.56,62.19,26.16,62.19s47.49-22.18,71.22-87.5h1.22Z"/><path class="cls-1" d="M1459.29,183.26l-11.89,97.79h-152.03c12.68-9.12,18.25-13.9,18.25-72.85V76.76c0-58.96-5.57-63.68-18.25-72.81h150.44l6.74,100.14h-1.22c-24.94-70.05-44.73-89.84-65.7-89.84s-24.94,19.79-24.94,62.14v70.37c19.14-26.16,25.59-36.73,31.12-37.25,5.76-.51,22.18,19.09,31.3,20.4,9.12,1.26,10.2-4.21,11.51-3.7,1.31,.56-14.37,31.87-27.42,31.87s-24.52-17.22-30.79-17.22c-5.94,0-14.22,12.82-15.72,15.21v52.5c0,42.39,3.56,62.19,26.16,62.19s47.49-22.18,71.22-87.5h1.22Z"/></g><g><path class="cls-1" d="M34.8,217.11c-.37,0-.75-.07-1.11-.22-1.46-.62-2.14-2.29-1.53-3.75,16.6-39.35,81.39-139.69,84.14-143.94,.86-1.32,2.62-1.71,3.96-.85,1.33,.86,1.7,2.63,.85,3.96-.67,1.04-67.27,104.17-83.67,143.05-.46,1.09-1.52,1.75-2.64,1.75Z"/><path class="cls-1" d="M2.86,108.41c-1.51,0-2.77-1.18-2.85-2.71-.08-1.58,1.13-2.92,2.71-3.01,1.11-.05,112.53-5.87,184.77-2.71,1.58,.07,2.8,1.4,2.73,2.98-.06,1.58-1.44,2.9-2.98,2.73-71.98-3.15-183.11,2.65-184.22,2.71-.05,0-.1,0-.16,0Z"/><path class="cls-1" d="M138.77,180.1c-.77,0-1.5-.09-2.19-.27-7.38-1.94-5.52-9.23-4.41-13.6,1.25-4.91,1.49-7.14-.19-8.19-1.96-1.23-10.15,3.77-15.55,7.08-10.3,6.33-20.97,12.9-28.63,8.73-2.57-1.39-4.17-3.61-4.61-6.42-1.73-10.87,13.8-31.93,57.29-77.68,1.09-1.15,2.91-1.19,4.04-.11,1.15,1.09,1.19,2.9,.11,4.04-26.87,28.27-57.5,62.1-55.79,72.85,.17,1.05,.67,1.73,1.69,2.28,4.75,2.57,14.82-3.62,22.91-8.58,9.27-5.7,16.6-10.19,21.58-7.06,5.5,3.44,3.88,9.8,2.7,14.45-1.5,5.93-1.02,6.31,.32,6.66,3.42,.89,11.96-4.44,18.86-8.71,9.05-5.6,17.58-10.83,23.85-10.11,1.6-4.06,4.13-7.59,6.21-9.35,6.51-5.48,14.21-7.81,19.2-5.74,2.52,1.04,4.09,3.14,4.33,5.77,.28,3.26-.92,6.26-3.48,8.7-4.81,4.58-13.81,6.64-21.64,6.64-.14,0-.27,0-.41,0-.26,1.79-.13,3.48,.58,4.84,2.09,3.95,9.94,4.37,21.53,1.15,35.53-9.87,49.14-14.22,49.27-14.27,1.53-.47,3.12,.35,3.6,1.85,.48,1.51-.34,3.12-1.85,3.6-.14,.04-13.82,4.42-49.49,14.33-15.06,4.19-24.52,2.84-28.13-3.99-1.27-2.4-1.55-5.14-1.22-7.89-4.42,.1-12.33,4.99-19.35,9.34-8.29,5.14-15.6,9.65-21.13,9.65Zm63.32-34.73c-2.61,0-6.84,1.25-11.45,5.13-1.24,1.05-2.66,2.98-3.79,5.23,6.24-.26,13-1.97,16.2-5.02,1.31-1.25,1.86-2.54,1.73-4.06-.03-.35-.11-.7-.81-.98-.45-.19-1.09-.3-1.88-.3Z"/></g></g></g></svg>
