<?xml version="1.0" encoding="UTF-8"?><svg id="Layer_2" xmlns="http://www.w3.org/2000/svg" viewBox="0 0 247.09 240.08"><defs><style>.cls-1{fill:#3b4a45;}</style></defs><g id="Layer_1-2"><path class="cls-1" d="M242.56,187.5c-1.9,4.85-4.31,9.49-7.05,13.91-1.36,2.23-2.8,4.4-4.34,6.51-1.39,1.93-2.74,3.91-4.16,5.81-.87,1.17-1.78,2.32-2.74,3.43-2.44,2.83-5.33,5.24-8.16,7.65-4.52,3.82-9.4,7.23-14.7,9.82-.51,.24-.99,.45-1.48,.66-6.81,3.07-14.21,4.79-21.68,4.79-4.49,0-9.03-.6-13.46-1.81-27.28-7.37-49.92-36.84-57.03-73.85-.16-.82,.4-1.62,1.22-1.75l3.02-.51c.79-.13,1.52,.39,1.68,1.18,6.69,34.75,27.6,62.34,52.68,69.12,4,1.08,8.04,1.63,12.05,1.63,14.58,0,28.94-7.35,41.8-21.32l.03-.3c7.68-8.07,9.82-22.59-3.49-35.9-9.61-9.58-28.73-17.86-52.46-22.74l-67.11-14.51c-.52,.17-.92,.31-1.44,.48L30.22,215.97c-.53,.62-1.47,.69-2.09,.15l-2.32-2.01c-.61-.53-.68-1.46-.15-2.08l63.94-74.35c-1.02-.21-2.05-.42-3.04-.63-29.36-6.2-50.56-10.69-67.61-27.74C-5.49,84.89-6.16,51.38,16.19,23.4,28.2,8.28,43.02,0,57.99,0c4,0,8.01,.57,11.96,1.72,24.41,7.22,42.22,34.42,45.95,69.76,.09,.83-.54,1.58-1.37,1.64l-3.05,.25c-.79,.06-1.48-.52-1.57-1.31-3.47-32.4-19.99-58.14-41.69-64.55-3.43-1.02-6.93-1.54-10.39-1.54-10.57,0-20.3,4.88-28.1,11.74-1.63,1.45-3.19,2.98-4.67,4.58-1.02,1.09-2.17,1.99-3.01,3.22-1.57,2.17-2.83,4.61-3.85,7.08-.84,2.02-1.32,4.19-1.47,6.36-.27,4.43,.87,8.85,2.92,12.74,1.78,3.31,4.13,6.26,6.78,8.91,10.33,10.33,27.4,18.04,52.16,23.58l47.08,10.41c.53,.12,1.08-.07,1.44-.48L195.22,14.91c.53-.62,1.46-.69,2.08-.16l2.31,1.99c.62,.53,.69,1.46,.16,2.08l-66.56,77.39,4.16,.93c5.6,1.2,11.44,2.32,17.35,3.43,29.36,5.6,59.75,11.38,77.97,30.05,7.02,7.2,12.02,16.2,13.73,26.17,1.75,10.36-.06,20.99-3.85,30.69Z"/></g></svg>